<?xml version="1.0" encoding="utf-8"?>
<!-- Generator: Adobe Illustrator 25.2.1, SVG Export Plug-In . SVG Version: 6.00 Build 0)  -->
<svg version="1.1" baseProfile="tiny" id="Layer_1" xmlns="http://www.w3.org/2000/svg" xmlns:xlink="http://www.w3.org/1999/xlink"
	 x="0px" y="0px" viewBox="0 0 706.18 173.02" overflow="visible" xml:space="preserve">
<g>
	<path fill="#6BAC58" d="M583.49,84.32c0,8.66-0.09,29.81-0.09,29.81l9.02-0.05c0,0-0.1-20.85-0.08-29.34
		c0.02-12.53,5.76-22.09,16.24-28.34c11.68-6.96,23.69-6.59,35.07,1.19c1.73,1.18,4.61,3.19,4.61,3.19s2.64-1.97,4.34-3.23
		c9.99-7.38,21.39-7.91,32.43-2.57c11.35,5.49,18.15,14.79,18.39,27.77c0.29,15.81,0.02,31.63,0.18,47.44
		c0.03,3.04,0.01,3.92,0.01,3.92l-20.4,0.09c0,0,0.05-2.84,0.07-4.8c0.13-15.15,0.07-30.3,0.05-45.45
		c-0.01-8.02-4.74-12.79-12.55-12.73c-7.72,0.05-12.41,4.92-12.43,13.01c-0.03,14.82-0.13,29.63,0.07,44.45
		c0.05,3.98,0.08,5.11,0.08,5.11h-20.41c0,0,0.24-9.68,0.18-14.44c-0.15-11.48-0.01-22.97-0.06-34.46
		c-0.04-8.14-5.45-13.51-13.25-13.71c-6.2-0.15-13.04,6.22-12.77,13.64c0.55,14.96,0.04,29.96,0.25,44.94
		c0.05,3.58-1.03,4.5-4.48,4.37c-6.82-0.25-13.66-0.04-20.48-0.05c-5.33-0.01-10.34-1.55-13.98-5.32c-1.24-1.29-2.94-3.45-2.94-3.45
		s-2.97,1.87-4.51,3.02c-14.08,10.44-33.14,10.36-47.69,0.05c-14.89-10.55-21.31-30.44-14.61-47.53c0.54-1.38,1.08-2.78,1.44-4.22
		c0.28-1.11,0.52-2.38-1.34-2.5c-6.59-0.45-13.19-1.84-19.76-0.16c-6.26,1.6-8.62,4.63-8.65,10.95c-0.06,14.98-0.1,29.97,0.04,44.95
		c0.03,3.13,0.03,4.26,0.03,4.26l-20.17-0.02c0,0,0.16-10.58,0.09-15.67c-0.15-10.82-0.06-21.64-0.04-32.46
		c0.03-17.88,13.13-31.83,30.94-31.98c31.07-0.26,62.15,0.05,93.23-0.05c1.78-0.01,4.03,0,4.03,0s-0.02,2.9-0.05,4.4
		C583.4,67.01,583.49,75.67,583.49,84.32z M563.54,85.3c0-4.11-0.07-7.6,0.03-11.08c0.06-2.03-0.51-3.12-2.76-3.04
		c-7.29,0.28-14.61-0.56-21.88,0.57c-10.04,1.57-17.02,9.36-17.75,19.78c-0.67,9.63,6.05,18.77,15.81,21.48
		c9.41,2.62,19.42-1.8,24.21-10.32C564.42,96.92,563.25,90.74,563.54,85.3z"/>
	<path fill="#6BAB58" d="M182.72,60.83c0.06,24.9-9.04,46-26.42,63.67c-0.3-0.33-0.6-0.65-0.9-0.98c4.45-9.45,6.73-19.35,6.13-29.82
		c-1.75-30.61-25.78-53.35-55.01-53.87c-9.16-0.16-18.33,0.05-27.49-0.05c-9.65-0.11-16.58-5.64-18.65-14.66
		C58.31,16.05,66.34,4.9,75.67,4.81c22.98-0.23,45.97-0.03,68.96,0c4.5,2.75,9.62,4.3,13.95,7.42c12.91,9.32,18.59,22.77,22.1,37.62
		C181.55,53.5,180.68,57.43,182.72,60.83z"/>
	<path fill="#004B8E" d="M415.71,100.77c-8.83,0-17.66-0.01-26.49,0.02c-0.89,0-2.22-0.5-2.46,0.84c-0.11,0.63,0.51,1.51,1,2.11
		c4.37,5.27,10.1,7.89,16.87,7.96c12.16,0.13,24.33,0.22,36.48-0.07c3.91-0.09,4.4-0.02,4.4-0.02l0.53,20.3
		c0,0-10.97-0.2-16.06-0.11c-8.83,0.16-17.66-0.19-26.48,0.09c-22.78,0.73-41.29-20.01-41.36-41.05
		c-0.07-21.49,17.94-42.66,43.17-41.95c21.34,0.6,38.61,16.97,40.49,36.8c0.33,3.46,0.23,6.73,0.07,10.15
		c-0.2,4.36-1.78,5.14-5.67,5.01C432.04,100.57,423.87,100.76,415.71,100.77z M403.93,80.55c4.97,0,9.94,0.02,14.91-0.02
		c0.9-0.01,2.22,0.46,2.49-0.83c0.13-0.62-0.52-1.5-0.98-2.14c-7.36-10.36-25.21-10.4-32.78-0.07c-0.55,0.75-1.64,1.56-0.82,2.55
		c0.39,0.47,1.48,0.49,2.26,0.5C393.99,80.57,398.96,80.55,403.93,80.55z"/>
	<path fill="#014B8E" d="M121.8,98.39c-0.6,9.05-7.66,16.24-16.79,16.29c-22.79,0.13-45.58-0.05-68.37-0.1
		c-4.08-3.87-9.37-6-13.59-9.79c-9.15-8.23-15.6-18.3-21.29-29c-2.44-8.64-1.94-17.53-0.9-26.15c2.19-18.26,9.39-34.59,21.66-48.5
		C22.93,0.67,23.45,0.3,24.45,0c-4.73,12.8-4.83,25.69-1.75,38.69c0.08,1.49-0.07,3.03,0.27,4.45
		c6.08,24.98,29.43,44.16,54.85,43.66c8.81-0.17,17.62-0.19,26.43,0.02C112.39,87.01,118.5,90.67,121.8,98.39z"/>
	<path fill="#014B8E" d="M191.51,91.76c-1.4-21.67,17.36-42.99,42.77-42.82c24.73,0.17,43.44,18.74,43.13,42.9
		c-0.33,25.05-18.59,42.29-42.87,42.57C209.51,134.7,190.59,114.68,191.51,91.76z M256.61,91.8c0.07-11.88-9.77-21.94-21.54-22.03
		c-12.98-0.1-23.27,9.64-23.18,21.96c0.08,11.91,10.33,22,22.35,22.01C246.26,113.75,256.55,103.66,256.61,91.8z"/>
	<path fill="#014B8E" d="M285.6,58.25c0-12.15,0.13-24.3-0.08-36.44c-0.04-2.23-0.06-5.37-0.06-5.37s3.01,0.39,5.1,1.03
		c3.28,1.01,6.72,1.45,9.77,3.2c5.44,3.12,8.43,7.44,8.36,14.08c-0.22,19.13-0.09,38.27-0.07,57.4c0.01,9.99,6.51,16.56,16.39,16.59
		c9.32,0.03,18.65,0.11,27.97-0.06c2.88-0.05,3.61,0.03,3.61,0.03l-0.07,23.08c0,0,0.35,0.12-2.07,0.01
		c-13.1-0.57-26.35,1.58-39.3-1.13c-17.11-3.58-29.4-19.06-29.6-36.5c-0.14-11.98-0.03-23.96-0.03-35.94
		C285.53,58.25,285.57,58.25,285.6,58.25z"/>
	<path fill="#023B6D" d="M121.8,98.39c-3.3-7.72-9.41-11.38-17.55-11.57c-8.8-0.21-17.62-0.19-26.43-0.02
		c-25.42,0.5-48.76-18.68-54.85-43.66c-0.35-1.42-0.19-2.96-0.27-4.45c5.43,14.36,14.05,26.08,27.86,33.45
		c8.13,4.34,16.75,6.78,26.06,6.66c9.13-0.12,18.26-0.16,27.39,0.01C115.16,79,123.47,88.29,121.8,98.39z"/>
	<path fill="#5C9D48" d="M182.72,60.83c-2.04-3.4-1.17-7.34-2.04-10.98c-3.51-14.85-9.2-28.3-22.1-37.62
		c-4.33-3.13-9.45-4.67-13.95-7.42c5.63-0.12,11.26-0.21,16.88-0.37c1.5-0.04,2.46,0.61,3.3,1.79
		C176.37,22.6,183.44,40.44,182.72,60.83z"/>
	<path fill="#024480" d="M1.76,75.79c5.69,10.7,12.14,20.77,21.29,29c4.22,3.8,9.51,5.92,13.59,9.79
		c-3.65,0.06-7.35-0.27-10.93,0.25c-6.3,0.91-10.01-1.62-12.86-7.18C7.64,97.51,2.74,87.36,1.76,75.79z"/>
	<path fill="#29689F" d="M683.82,159.42c0-1.33,0.01-2.66-0.01-3.98c-0.03-2.37,0.07-3.31,3.46-3.51c4.11-0.25,8.09,1.75,12.39-0.07
		c3.05-1.29,5.86,0.75,6.19,4.52c0.26,2.96,0.23,5.95,0.31,8.93c0.05,1.65-0.7,2.41-2.41,2.33c-1.59-0.07-1.91-1.03-1.93-2.31
		c-0.04-2.49-0.01-4.98-0.13-7.47c-0.07-1.37-0.46-2.79-2.2-2.76c-1.7,0.02-2.14,1.4-2.2,2.78c-0.11,2.49-0.09,4.98-0.13,7.47
		c-0.02,1.29-0.37,2.23-1.95,2.29c-1.73,0.07-2.4-0.73-2.4-2.35c0.01-2.49,0-4.98-0.05-7.47c-0.03-1.45-0.5-2.75-2.19-2.71
		c-1.55,0.03-2.32,1.12-2.35,2.66c-0.03,2.32-0.04,4.65-0.04,6.97c0,1.62-0.15,3-2.36,2.91c-1.94-0.08-2.01-1.35-2.01-2.74
		C683.82,163.07,683.83,161.24,683.82,159.42z"/>
	<path fill="#175B98" d="M433.33,159.41c0-0.33-0.03-0.67,0-1c0.23-2.1-0.26-6.12,0.54-5.99c3.13,0.52,6.25-2.07,9.01-0.14
		c1.74,1.22,2.62,0.63,4.22-0.09c4.22-1.9,7.63,0.26,8.01,4.93c0.23,2.8,0.07,5.64,0.06,8.46c-0.01,1.43-0.73,2.07-2.2,1.98
		c-1.34-0.08-1.6-0.92-1.62-2c-0.05-2.49,0.07-4.99-0.19-7.45c-0.15-1.42-0.59-3.2-2.56-3.1c-1.97,0.1-2.13,1.73-2.13,3.3
		c0,2.32-0.01,4.65-0.01,6.97c0,1.28-0.27,2.22-1.88,2.31c-1.83,0.09-2.29-0.82-2.26-2.41c0.04-2.16,0.02-4.31-0.02-6.47
		c-0.03-1.75-0.37-3.59-2.47-3.65c-2.23-0.06-2.41,1.77-2.37,3.54c0.04,1.99,0,3.98,0.01,5.97c0.01,1.54,0.08,3.06-2.19,3.01
		c-2.42-0.06-1.88-1.83-1.93-3.21C433.27,162.73,433.33,161.07,433.33,159.41z"/>
	<path fill="#0C5393" d="M538.53,159.45c0-0.33-0.03-0.67,0-1c0.18-2.12-0.44-4.3,0.45-6.37c3,1.42,6.12-1.42,8.98,0.13
		c1.55,0.84,2.42,1.12,4.21,0.23c4.41-2.2,7.92,0.06,8.22,4.98c0.16,2.64,0.02,5.31,0.02,7.96c0,1.36-0.48,2.15-2.02,2.18
		c-1.68,0.03-1.85-0.97-1.86-2.23c0-2.32,0.06-4.65-0.06-6.97c-0.09-1.75-0.69-3.51-2.8-3.34c-1.79,0.15-2.13,1.78-2.11,3.4
		c0.03,2.16,0.01,4.31,0,6.47c-0.01,1.34,0.11,2.65-1.94,2.69c-1.96,0.04-2.11-1.08-2.1-2.53c0.01-2.32-0.01-4.65-0.01-6.97
		c0-1.72-0.74-3.09-2.49-3.1c-1.74-0.01-2.5,1.29-2.46,3.07c0.06,2.49-0.01,4.98,0,7.47c0.01,1.41-0.54,2.07-2.06,2.06
		c-1.58-0.01-1.98-0.81-1.97-2.16C538.54,163.43,538.53,161.44,538.53,159.45z"/>
	<path fill="#125795" d="M520.74,152.81c-2.53,4.5-3.05,10.34-10.55,8.8c2.09,2.53,4.11,1.65,5.82,1.99
		c1.71,0.33,3.27,0.67,3.76,2.62c0.61,2.43-0.42,4.2-2.46,5.38c-3.46,2-7.04,1.83-10.33-0.23c-1.77-1.1-1.45-2.74-0.68-4.76
		c0.88-2.32,1.65-4.87,0.65-7.66c-1.63-4.55,0.64-7.43,5.57-7.26C515.1,151.78,517.67,152.38,520.74,152.81z M512.57,169.85
		c1.43-0.08,3.48-0.03,3.32-1.81c-0.16-1.8-2.3-1.24-3.69-1.33c-1.29-0.08-2.95-0.28-2.77,1.64
		C509.6,170.07,511.32,169.72,512.57,169.85z M512.35,158.9c1.31-0.05,2.35-0.46,2.37-1.91c0.02-1.27-0.58-2.16-1.99-2.28
		c-1.63-0.14-2.51,0.71-2.56,2.22C510.13,158.31,511.13,158.84,512.35,158.9z"/>
	<path fill="#125795" d="M353.9,159.49c0-1.49,0.03-2.98-0.01-4.47c-0.07-2.42,0.45-4.06,3.41-2.78c0.42,0.18,0.99,0.46,1.34,0.31
		c2.94-1.22,6.07-1.96,8.02,1.14c2.43,3.86,0.99,8.39,1.12,12.63c0.04,1.37-1.22,1.28-2.22,1.29c-1.2,0.01-1.85-0.59-1.87-1.78
		c-0.04-2.15-0.03-4.31-0.04-6.46c-0.02-2.04,0-4.37-2.82-4.23c-2.32,0.12-2.62,2.1-2.55,4.08c0.06,1.65,0.04,3.31,0,4.97
		c-0.04,1.61,0.35,3.53-2.29,3.43c-2.68-0.11-1.96-2.15-2.05-3.66C353.83,162.48,353.9,160.98,353.9,159.49z"/>
	<path fill="#175B98" d="M474.32,159.58c0-1.5,0.02-2.99-0.01-4.49c-0.05-2.28,0.09-4.29,3.25-2.71c0.28,0.14,0.67,0.36,0.91,0.27
		c2.89-1.08,6.07-2.21,8.11,0.91c2.52,3.85,0.87,8.42,1.14,12.67c0.07,1.03-0.76,1.31-1.69,1.36c-1.52,0.07-2.08-0.75-2.08-2.13
		c-0.01-2.16,0.04-4.33-0.06-6.49c-0.09-1.87-0.34-3.99-2.78-3.97c-2.38,0.02-2.76,1.89-2.68,3.93c0.08,1.99,0.01,3.99,0.01,5.99
		c0,1.41-0.06,2.64-2.03,2.69c-1.96,0.06-2.13-1.08-2.11-2.54C474.34,163.24,474.32,161.41,474.32,159.58z"/>
	<path fill="#175B98" d="M675.28,167.77c-3.33-0.01-5.83-1.14-7.22-3.92c-1.58-3.17-1.63-6.43,0.52-9.39
		c1.84-2.53,4.53-3.27,7.5-2.68c3.35,0.67,5.35,2.95,5.22,6.27c-0.02,0.48-0.18,1.36-0.74,2c-2.04,2.34-8.03-0.6-8.86,0.99
		c-0.32,0.6,0.23,1.59,0.38,1.8c1.26,1.66,2.91,1.94,4.86,1.22c1.31-0.48,3.21-1.59,3.74,0.54c0.54,2.17-1.92,2.17-3.25,2.82
		C676.73,167.75,675.82,167.69,675.28,167.77z M670.91,157.69c1.48,0.05,3.04,0.05,4.66-0.01c0.66-0.03,1.31-0.06,1.94-0.1
		c-0.1-0.29-0.81-2.34-2.69-2.9c-0.28-0.08-0.93-0.27-1.67-0.05C671.98,154.97,671.13,156.17,670.91,157.69z"/>
	<path fill="#175B98" d="M569.5,167.74c-3.43-0.21-6.1-2.58-6.76-6.9c-0.62-4.08,1.04-7.46,4.91-8.81c3.28-1.15,6.65-0.54,8.6,3.02
		c1.94,3.54,1.02,5.16-2.94,5.28c-0.83,0.02-1.69-0.12-2.49,0.04c-1.24,0.25-3.49-0.84-3.36,1.5c0.12,2.24,2.14,2.6,4.14,2.53
		c1.65-0.05,4.35-2.67,4.64,0.64c0.18,2.12-3.04,2.49-5.21,2.7C570.86,167.75,570.69,167.74,569.5,167.74z M573.31,157.49
		c-0.5-1.53-1.17-2.36-1.99-2.69c-0.18-0.07-1.53-0.56-2.73,0.3c-1.22,0.87-1.19,2.34-1.19,2.45
		C569.37,157.54,571.34,157.51,573.31,157.49z"/>
	<path fill="#125795" d="M521.48,159.4c0.1-3.94,1.9-6.79,5.81-7.6c3.56-0.74,6.74,0.36,8.07,4.12c0.84,2.37,1.04,4.8-2.84,4.4
		c-0.99-0.1-2.03-0.19-2.98,0.03c-1.25,0.29-3.6-1.05-3.55,1.23c0.06,2.33,2.16,3.13,4.42,2.77c0.81-0.13,1.57-0.53,2.36-0.78
		c1.09-0.35,2.11-0.09,2.47,0.99c0.41,1.24-0.78,1.7-1.6,2.1c-2.84,1.4-5.71,1.64-8.54-0.09
		C522.42,164.93,521.39,162.47,521.48,159.4z M525.69,157.71c2.16,0.03,4.32,0.06,6.49,0.09c-0.02-0.17-0.33-2.14-1.75-2.8
		c-0.59-0.27-1.35-0.31-1.39-0.31c-0.54-0.02-1.01,0.08-1.25,0.16C526.25,155.35,525.71,157.6,525.69,157.71z"/>
	<path fill="#175B98" d="M389.57,151.67c2.31-0.12,4.23,0.96,5.55,3.13c2.18,3.61,1.18,5.23-3,5.61c-1.92,0.17-5.61-1.58-5.41,1.66
		c0.19,3.17,3.54,2.54,6.04,1.62c0.96-0.36,2.04-0.49,2.6,0.6c0.63,1.23-0.42,1.85-1.25,2.29c-3.18,1.67-6.37,1.83-9.33-0.5
		c-3.13-2.47-3.76-5.8-2.57-9.38C383.28,153.41,385.63,151.51,389.57,151.67z M386.14,157.28c2.22,0,4.08,0,6.84,0
		C390.03,154.09,388.14,153.65,386.14,157.28z"/>
	<path fill="#125795" d="M470.78,161.07c0,1.49,0.06,2.98-0.03,4.47c-0.04,0.6-0.41,1.17-0.63,1.76c-3.5-1.53-7.32,2.09-10.64-0.5
		c-2.75-2.15-2.14-4.58,0.27-6.66c1.29-1.12,2.94-1.43,4.62-1.56c1.14-0.09,2.52-0.14,2.2-1.87c-0.25-1.34-1.38-1.88-2.59-1.78
		c-0.96,0.08-1.87,0.61-2.82,0.85c-0.85,0.21-1.69,0.07-2.13-0.79c-0.65-1.27,0.41-1.79,1.23-2.25c2.44-1.36,5.04-1.68,7.61-0.47
		c2.42,1.14,2.96,3.37,2.93,5.83C470.78,159.08,470.79,160.08,470.78,161.07z M466.82,162.69c-0.01-0.94-0.23-1.78-1.3-1.62
		c-1.41,0.21-3.08,0.3-3.53,2.04c-0.23,0.89,0.54,1.45,1.42,1.56C465.04,164.86,466.24,164.24,466.82,162.69z"/>
	<path fill="#125795" d="M579.66,159.71c0-1.33,0.01-2.66-0.01-3.99c-0.02-2.5-0.19-5.15,3.67-3.23c0.15,0.07,0.34,0.18,0.47,0.14
		c3.02-0.93,6.32-2.25,8.52,1.08c2.45,3.71,0.94,8.11,1.21,12.2c0.08,1.26-0.76,1.61-1.92,1.66c-1.52,0.07-2.09-0.62-2.09-2.04
		c0-2.49,0.01-4.99-0.06-7.48c-0.05-1.69-0.88-3.07-2.63-3.04c-1.83,0.03-3.07,1.13-3.04,3.21c0.03,2.33-0.01,4.66-0.01,6.99
		c0,1.23-0.09,2.3-1.78,2.37c-1.76,0.07-2.37-0.75-2.33-2.38C579.69,163.37,579.66,161.54,579.66,159.71z"/>
	<path fill="#125795" d="M398.7,159.53c0-1.66,0.05-3.33-0.01-4.99c-0.08-2.16,0.67-3.2,2.95-2.43c0.47,0.16,1.02,0.68,1.35,0.55
		c3.07-1.14,6.31-2.21,8.44,1.2c2.34,3.75,0.91,8.12,1.1,12.22c0.06,1.36-0.99,1.46-2.07,1.48c-1.22,0.02-1.88-0.49-1.89-1.71
		c-0.03-2.49,0.02-4.99-0.06-7.48c-0.06-1.81-0.74-3.44-2.84-3.35c-1.9,0.08-2.89,1.38-2.86,3.38c0.04,2.16,0,4.33,0,6.49
		c0,1.37,0.05,2.69-1.96,2.7c-1.87,0-2.18-1.05-2.15-2.57C398.73,163.19,398.7,161.36,398.7,159.53z"/>
	<path fill="#125795" d="M343.87,167.73c-4.65,0.04-7.94-3.41-7.87-8.25c0.07-4.68,3.12-7.77,7.71-7.8c4.65-0.03,7.77,2.99,7.9,7.64
		C351.75,164.13,348.47,167.69,343.87,167.73z M347.45,159.29c-0.23-2.28-0.79-4.62-3.85-4.5c-3.12,0.12-3.42,2.72-3.41,5.02
		c0.01,2.4,0.73,4.87,3.79,4.69C346.91,164.32,347.36,161.89,347.45,159.29z"/>
	<path fill="#175B98" d="M634.17,160.07c0.91-2.33,1.73-4.49,2.61-6.63c0.72-1.76,2.32-2.08,3.71-1.4c1.58,0.78,0.15,2.08-0.2,2.95
		c-2.06,5.06-4.36,10.02-6.44,15.07c-0.73,1.77-1.83,3.22-3.63,2.35c-2.07-1.01-0.27-2.64,0.31-3.74c0.98-1.83,0.78-3.37-0.04-5.14
		c-1.68-3.59-3.19-7.26-4.99-11.4C632.41,150.71,630.59,157.85,634.17,160.07z"/>
	<path fill="#0C5393" d="M503.58,161.87c-0.34,1.66-0.03,5.44-0.53,5.25c-3.7-1.47-7.5,2.33-10.88-0.36
		c-1.98-1.58-2.29-3.59-0.6-5.67c1.1-1.36,2.63-1.91,4.26-2.4c1.31-0.4,4.08,0.89,3.55-1.95c-0.42-2.26-2.47-2.18-4.41-1.31
		c-1.22,0.55-2.84,1.09-3.26-0.77c-0.39-1.7,1.43-2.05,2.57-2.5C500.34,149.72,503.58,153.05,503.58,161.87z M499.65,162.69
		c-0.07-0.71,0-1.69-1.09-1.68c-1.45,0.02-3.02,0.26-3.77,1.67c-0.58,1.08,0.17,1.86,1.3,2.01
		C497.67,164.89,498.92,164.35,499.65,162.69z"/>
	<path fill="#125795" d="M376.62,167.76c-3.22,0.08-4.35-1.77-4.74-4.6c-0.43-3.07,1.34-6.5-1.8-9.33
		c-0.35-0.32,2.53-4.44,4.17-6.61c0.41-0.55,1.76,0.1,1.84,0.99c0.18,2.09,0.31,3.63,3.16,3.89c1.45,0.13,1.37,1.85-0.21,2.85
		c-3.88,2.46-3.86,6.58-0.09,9.15c0.62,0.42,1.47,1.46,1.32,1.86C379.64,167.55,378.04,167.65,376.62,167.76z"/>
	<path fill="#125795" d="M421.33,167.71c-3.18,0.12-4.26-1.73-4.67-4.59c-0.36-2.53,1.06-5.48-0.6-7.73
		c-0.16-0.22-1.4-0.45-1.4-0.45v-1.97c0,0,1.78-0.05,1.81-0.66c0.09-1.94,0.06-5.45,2.62-5.06c0.44,0.07,1.29,0.01,1.53,0.77
		c0.14,0.46,0.28,1.01,0.18,1.45c-0.87,3.6,3.81,1.16,3.99,3.73c0.2,2.94-4.03,2.32-4.03,2.32s-2.07,7.84,2.84,8.73
		c0.87,0.16,1.54,1.15,1.19,1.84C424.12,167.39,422.71,167.66,421.33,167.71z"/>
	<path fill="#125795" d="M602.9,167.7c-3.71,0.09-4.89-1.67-5.29-4.56c-0.43-3.04,1.57-6.54-1.74-9.3
		c-0.27-0.23,2.66-4.33,4.19-6.59c0.08-0.12,0.91,0.16,1.3,0.4c0.22,0.14,0.42,0.63,0.35,0.87c-1.09,3.63,3.13,2.58,3.8,4.28
		c1.32,3.36-4.2,1.15-3.61,3.85c0.57,2.6-2.48,6.58,2.68,7.6c0.89,0.17,1.52,1.15,1.17,1.86C605.1,167.39,603.72,167.71,602.9,167.7
		z"/>
	<path fill="#125795" d="M620.92,154.9c-1.13-0.16-2.61-0.61-3.09,0.7c-0.72,1.96,1.24,1.95,2.36,2.34
		c3.18,1.11,5.44,2.79,4.02,6.57c-1.09,2.91-5.85,4.17-9.11,2.59c-0.89-0.43-2.02-0.8-1.69-2.05c0.39-1.49,1.49-1.49,2.76-0.98
		c1.51,0.6,3.52,1.57,4.13-0.65c0.53-1.92-1.84-1.98-3.08-2.49c-2.16-0.89-3.81-2.03-3.76-4.63c0.03-1.82,0.83-3.19,2.53-3.92
		c2.4-1.04,4.79-1.15,7.13,0.22c0.78,0.45,1.36,1.01,0.82,1.96C623.11,155.99,622,155.38,620.92,154.9z"/>
	<path fill="#125795" d="M649.31,151.69c0.37,0.09,1.37,0.2,2.26,0.59c0.84,0.37,2.07,0.76,1.55,2.08c-0.42,1.05-1.3,1.32-2.45,0.85
		c-1.39-0.57-3.34-1.21-3.81,0.64c-0.52,2.02,1.91,1.87,3.12,2.37c2.17,0.9,3.82,1.96,3.68,4.65c-0.12,2.32-1.45,3.75-3.45,4.42
		c-2.46,0.83-4.94,0.63-7.18-0.84c-0.59-0.39-0.87-1.13-0.39-1.72c0.37-0.46,1.06-0.98,1.56-0.94c1.13,0.11,2.21,0.63,3.34,0.83
		c0.84,0.15,1.72-0.04,2.02-1.01c0.29-0.95-0.24-1.54-1.1-1.89c-0.62-0.25-1.21-0.58-1.84-0.77c-2.67-0.8-4.64-2.26-4-5.34
		C643.27,152.44,645.77,151.62,649.31,151.69z"/>
	<path fill="#175B98" d="M661.28,167.74c-2.06-0.13-3.39-1.2-3.81-3.56c-0.61-3.45,1.66-7.44-2.05-10.53
		c-0.29-0.24,2.49-4.21,3.95-6.38c0.1-0.14,1.62,0.33,1.62,0.52c0,2.87,1.31,4.14,4.17,4.71c0.83,0.16,0.58,2.48-1.44,2.43
		c-2.61-0.06-2.5,1.77-2.28,3.39c0.27,1.95-1.32,4.61,1.37,5.68c1.28,0.51,2.98,0.6,2.55,2.14
		C664.95,167.67,663.01,167.66,661.28,167.74z"/>
	<path fill="#125795" d="M329.79,167.71c-3.68,0.03-5.96-1.39-7.26-4.24c-1.52-3.32-1.14-6.53,1.11-9.37
		c2.13-2.68,5.14-2.89,8.18-2.15c1.13,0.28,2.96,0.79,2.52,2.46c-0.47,1.8-1.96,1.22-3.27,0.67c-1.77-0.74-3.31-0.27-4.3,1.36
		c-1.22,2.01-1.24,4.14-0.06,6.17c0.94,1.63,2.38,2.24,4.23,1.52c1.21-0.47,2.78-1.42,3.41,0.3c0.73,2.02-1.44,2.24-2.66,2.85
		C330.98,167.65,330.09,167.65,329.79,167.71z"/>
	<path fill="#6BAB58" d="M156.3,124.51c-0.47,0.34-1.32,1.01-1.36,0.96c-0.72-0.81-0.25-1.42,0.46-1.94
		C155.7,123.85,156,124.18,156.3,124.51z"/>
</g>
</svg>
